GRF
version=1
nRows=24
nColumns=19
inDegrees=no
endheader
time	1_ground_force_vx	1_ground_force_vy	1_ground_force_vz	1_ground_force_px	1_ground_force_py	1_ground_force_pz	1_ground_torque_x	1_ground_torque_y	1_ground_torque_z	2_ground_force_vx	2_ground_force_vy	2_ground_force_vz	2_ground_force_px	2_ground_force_py	2_ground_force_pz	2_ground_torque_x	2_ground_torque_y	2_ground_torque_z
      0.00000000	      0.76647288	      0.06589127	      0.20410156	      0.27754831	      0.00000000	      4.18008348	      0.00000000	     -3.00356065	     -0.00000000	      0.00000000	      0.00000000	      0.00000000	      0.00000000	      0.00000000	      0.00000000	      0.00000000	      0.00000000	      0.00000000
      0.00100000	      0.32696092	     -0.30749195	     -0.90304015	      0.20747046	      0.00000000	      1.35806182	      0.00000000	     -0.63877230	      0.00000000	      0.00000000	      0.00000000	      0.00000000	      0.00000000	      0.00000000	      0.00000000	      0.00000000	      0.00000000	      0.00000000
      0.00200000	      0.57004126	     -0.40570583	     -0.72691051	      0.29622525	      0.00000000	      0.39580903	      0.00000000	      0.11659656	      0.00000000	      0.00000000	      0.00000000	      0.00000000	      0.00000000	      0.00000000	      0.00000000	      0.00000000	      0.00000000	      0.00000000
      0.00300000	      1.20830379	     -0.14856053	     -0.04486762	      0.38953226	      0.00000000	      0.20136412	      0.00000000	      0.19738230	      0.00000000	      0.00000000	      0.00000000	      0.00000000	      0.00000000	      0.00000000	      0.00000000	      0.00000000	      0.00000000	      0.00000000
      0.00400000	      1.07221857	     -0.68318893	      0.17299869	      0.30115035	      0.00000000	      0.18178527	      0.00000000	      0.09667312	      0.00000000	      0.00000000	      0.00000000	      0.00000000	      0.00000000	      0.00000000	      0.00000000	      0.00000000	      0.00000000	      0.00000000
      0.00500000	      0.36134613	     -2.07440242	      0.00156792	      0.26372524	      0.00000000	      0.21570206	      0.00000000	      0.04835061	      0.00000000	      0.00000000	      0.00000000	      0.00000000	      0.00000000	      0.00000000	      0.00000000	      0.00000000	      0.00000000	      0.00000000
      0.00600000	     -0.16573311	     -2.13459867	     -0.00540229	      0.37133782	      0.00000000	      0.27758612	     -0.00000000	      0.10823261	      0.00000000	      0.00000000	      0.00000000	      0.00000000	      0.00000000	      0.00000000	      0.00000000	      0.00000000	      0.00000000	      0.00000000
      0.00700000	     -0.20761191	     -0.72703814	      0.06261204	      0.33503951	      0.00000000	      0.35378446	      0.00000000	      0.14737131	      0.00000000	      0.00000000	      0.00000000	      0.00000000	      0.00000000	      0.00000000	      0.00000000	      0.00000000	      0.00000000	      0.00000000
      0.00800000	      0.02188216	      0.40336890	     -0.22621468	      0.09900062	      0.00000000	      0.30354046	      0.00000000	      0.07645285	      0.00000000	      0.00000000	      0.00000000	      0.00000000	      0.00000000	      0.00000000	      0.00000000	      0.00000000	      0.00000000	      0.00000000
      0.00900000	      0.16412521	      0.53945764	     -0.54912450	      0.12768447	      0.00000000	      0.15445338	      0.00000000	      0.05619680	      0.00000000	      0.00000000	      0.00000000	      0.00000000	      0.00000000	      0.00000000	      0.00000000	      0.00000000	      0.00000000	      0.00000000
      0.01000000	      0.41506801	      0.28726830	     -0.32911239	      0.31113276	      0.00000000	      0.21953994	      0.00000000	      0.02221953	      0.00000000	      0.00000000	      0.00000000	      0.00000000	      0.00000000	      0.00000000	      0.00000000	      0.00000000	      0.00000000	      0.00000000
      0.01100000	      0.67402063	      0.11148357	      0.19456561	      0.42326464	      0.00000000	      0.36212033	      0.00000000	     -0.02097742	     -0.00000000	      0.00000000	      0.00000000	      0.00000000	      0.00000000	      0.00000000	      0.00000000	      0.00000000	      0.00000000	      0.00000000
      0.01200000	      0.44585204	     -0.47741764	      0.44428889	      0.39178205	      0.00000000	      0.32838237	      0.00000000	      0.03643181	     -0.00000000	      0.00000000	      0.00000000	      0.00000000	      0.00000000	      0.00000000	      0.00000000	      0.00000000	      0.00000000	      0.00000000
      0.01300000	     -0.07825012	     -1.08519901	      0.21811593	      0.32222208	      0.00000000	      0.22657007	      0.00000000	      0.04344680	     -0.00000000	      0.00000000	      0.00000000	      0.00000000	      0.00000000	      0.00000000	      0.00000000	      0.00000000	      0.00000000	      0.00000000
      0.01400000	     -0.34489177	     -0.92214420	     -0.09153514	      0.36837656	      0.00000000	      0.20847279	      0.00000000	     -0.07642261	     -0.00000000	      0.00000000	      0.00000000	      0.00000000	      0.00000000	      0.00000000	      0.00000000	      0.00000000	      0.00000000	      0.00000000
      0.01500000	     -0.18891918	     -0.27751347	     -0.00898880	      0.31800776	      0.00000000	      0.38615519	     -0.00000000	     -0.20215302	      0.00000000	      0.00000000	      0.00000000	      0.00000000	      0.00000000	      0.00000000	      0.00000000	      0.00000000	      0.00000000	      0.00000000
      0.01600000	      0.04797092	      0.25547691	      0.02057191	      0.11652933	      0.00000000	      0.41432667	     -0.00000000	     -0.13466627	      0.00000000	      0.00000000	      0.00000000	      0.00000000	      0.00000000	      0.00000000	      0.00000000	      0.00000000	      0.00000000	      0.00000000
      0.01700000	     -0.07356714	      0.25001764	     -0.38675453	     -0.01008044	      0.00000000	      0.05595165	     -0.00000000	      0.00912622	      0.00000000	      0.00000000	      0.00000000	      0.00000000	      0.00000000	      0.00000000	      0.00000000	      0.00000000	      0.00000000	      0.00000000
      0.01800000	     -0.09210491	     -0.06887666	     -0.48439679	     -0.09871989	      0.00000000	      0.05313182	     -0.00000000	     -0.01438253	      0.00000000	      0.00000000	      0.00000000	      0.00000000	      0.00000000	      0.00000000	      0.00000000	      0.00000000	      0.00000000	      0.00000000
      0.01900000	      0.25901910	      0.09694544	     -0.18253879	     -0.06262881	      0.00000000	      0.31772392	      0.00000000	     -0.11232145	      0.00000000	      0.00000000	      0.00000000	      0.00000000	      0.00000000	      0.00000000	      0.00000000	      0.00000000	      0.00000000	      0.00000000
      0.02000000	      0.26753084	      0.31751882	     -0.02368726	      0.07868171	      0.00000000	      0.33463390	      0.00000000	     -0.09214856	      0.00000000	      0.00000000	      0.00000000	      0.00000000	      0.00000000	      0.00000000	      0.00000000	      0.00000000	      0.00000000	      0.00000000
      0.02100000	     -0.02234498	     -0.16935093	     -0.19798943	      0.14516053	      0.00000000	      0.25537403	      0.00000000	     -0.03831325	      0.00000000	      0.00000000	      0.00000000	      0.00000000	      0.00000000	      0.00000000	      0.00000000	      0.00000000	      0.00000000	      0.00000000
      0.02200000	     -0.07344409	     -0.40980418	     -0.29598133	      0.10458493	      0.00000000	      0.26967612	      0.00000000	     -0.02857911	      0.00000000	      0.00000000	      0.00000000	      0.00000000	      0.00000000	      0.00000000	      0.00000000	      0.00000000	      0.00000000	      0.00000000
      0.02300000	      0.10914874	     -0.00929616	     -0.04586213	     -0.06579267	      0.00000000	      0.29662266	      0.00000000	     -0.11328078	      0.00000000	      0.00000000	      0.00000000	      0.00000000	      0.00000000	      0.00000000	      0.00000000	      0.00000000	      0.00000000	      0.00000000
